<?xml version="1.0" encoding="UTF-8" standalone="no"?>
<svg
   viewBox="0 0 295500.95 375769"
   version="1.1"
   id="svg44"
   width="295500.94"
   height="375769"
   xmlns="http://www.w3.org/2000/svg"
   xmlns:svg="http://www.w3.org/2000/svg">
  <defs
     id="defs4">
    <style
       id="style2">.cls-1{stroke:#000;stroke-miterlimit:10;}.cls-2{font-size:95.44px;}.cls-2,.cls-4,.cls-7{font-family:Comfortaa-Light, Comfortaa;font-weight:300;}.cls-3{letter-spacing:-0.04em;}.cls-4{font-size:101.71px;}.cls-5{letter-spacing:-0.01em;}.cls-6{letter-spacing:0em;}.cls-7{font-size:213.98px;}</style>
  </defs>
  <g
     id="Слой_2"
     data-name="Слой 2">
    <g
       id="черный"
       style="display:none">
      <g
         id="Слой_1-2"
         data-name="Слой 1">
        <path
           d="m 133.34,360.81 c 0,6.07 -0.2,12.12 -0.39,18.18 -0.19,6.06 -0.44,12.1 -0.78,18.13 l -0.46,9.07 -0.54,9.05 c -0.39,6 -0.79,12.07 -1.25,18.1 v 0.52 l -0.27,0.61 a 279.9,279.9 0 0 0 -12.82,36.45 c -1.7,6.27 -3.38,12.55 -4.77,18.81 a 182.31,182.31 0 0 0 -3.22,18.92 165,165 0 0 0 0,38.41 c 0.39,3.2 0.83,6.4 1.42,9.58 0.59,3.18 1.18,6.37 1.9,9.54 q 2.17,9.51 5.25,18.88 a 130.27,130.27 0 0 1 -8,-18.07 c -1.1,-3.12 -2.15,-6.26 -3,-9.46 -0.85,-3.2 -1.65,-6.43 -2.35,-9.69 A 140.71,140.71 0 0 1 101.5,508 c 0.25,-3.34 0.65,-6.67 1.11,-10 0.46,-3.33 1.08,-6.6 1.74,-9.87 1.35,-6.55 3,-12.93 4.76,-19.29 a 220.68,220.68 0 0 1 14.09,-37.27 l -0.31,1.13 c 0.7,-6 1.46,-12 2.23,-18 l 1.19,-9 1.27,-9 c 0.82,-6 1.77,-12 2.69,-17.95 0.92,-5.95 1.95,-11.98 3.07,-17.94 z"
           id="path6" />
        <path
           d="m 141.41,0 a 206.42,206.42 0 0 0 -12.3,80 c 0.15,3.36 0.22,6.73 0.4,10.09 0.18,3.36 0.5,6.73 0.86,10.08 0.76,6.7 1.8,13.38 3.15,20 a 244.47,244.47 0 0 0 11.32,38.83 220.8,220.8 0 0 0 17.83,36.29 c 3.47,5.83 7.31,11.5 10.49,17.93 a 45.55,45.55 0 0 1 3.65,10.33 42,42 0 0 1 0.8,11 52.43,52.43 0 0 1 -0.61,5.45 29.86,29.86 0 0 1 -1.39,5.51 54.81,54.81 0 0 1 -4.7,9.76 49.64,49.64 0 0 1 -3.07,4.5 c -0.28,0.37 -0.57,0.73 -0.88,1.1 l -0.83,1 -1.67,2 q -3.34,3.93 -6.77,7.78 c -4.54,5.15 -9.2,10.18 -13.65,15.27 -4.45,5.09 -8.58,10.27 -11.28,16.05 a 47,47 0 0 0 -4.28,18.69 135.65,135.65 0 0 0 1.15,20 148,148 0 0 0 3.19,19.87 164.14,164.14 0 0 0 6.18,19.1 c 2.38,6.34 5,12.66 7.54,19 2.54,6.34 5.24,12.58 8,18.78 2.76,6.2 5.7,12.26 8.89,18.27 a 82.65,82.65 0 0 1 4.54,9.56 104.42,104.42 0 0 1 3.23,10 123.09,123.09 0 0 1 4.08,20.58 c 0.76,7 0.8,13.93 1,20.7 0.2,6.77 0.67,13.5 1.44,20.2 0.77,6.7 2,13.36 3.18,20 a 174.48,174.48 0 0 0 10.83,39 A 205.72,205.72 0 0 0 210.41,613 191.18,191.18 0 0 1 188.76,578 175.25,175.25 0 0 1 175,538.9 c -0.35,-1.69 -0.72,-3.37 -1,-5.07 -0.28,-1.7 -0.53,-3.42 -0.8,-5.12 -0.54,-3.41 -1,-6.85 -1.42,-10.28 -0.79,-6.88 -1.26,-13.82 -1.47,-20.7 -0.21,-6.88 -0.28,-13.65 -1,-20.26 a 116,116 0 0 0 -3.89,-19.6 c -0.88,-3.24 -1.88,-6.45 -3,-9.49 a 78.7,78.7 0 0 0 -4.26,-8.94 c -3.23,-6.07 -6.25,-12.33 -9.05,-18.61 -2.8,-6.28 -5.48,-12.61 -8.09,-18.95 -2.61,-6.34 -5.18,-12.69 -7.61,-19.15 a 170.25,170.25 0 0 1 -6.3,-19.88 c -0.84,-3.4 -1.51,-6.85 -2,-10.32 -0.49,-3.47 -0.89,-6.87 -1.29,-10.28 a 141.61,141.61 0 0 1 -1.19,-20.92 60.91,60.91 0 0 1 1.33,-10.69 49.11,49.11 0 0 1 3.52,-10.32 c 3.12,-6.64 7.68,-12.22 12.18,-17.42 4.5,-5.2 9.19,-10.21 13.69,-15.32 q 3.39,-3.82 6.69,-7.69 l 1.65,-1.95 0.81,-1 0.73,-0.91 a 43.88,43.88 0 0 0 2.71,-4 49.26,49.26 0 0 0 4.18,-8.69 32.44,32.44 0 0 0 1.6,-9.2 35.18,35.18 0 0 0 -0.67,-9.41 38.84,38.84 0 0 0 -3.18,-9 C 165,209.89 161.18,204.19 157.64,198.28 A 226.37,226.37 0 0 1 139.35,161.04 239.78,239.78 0 0 1 123.17,79.96 196.37,196.37 0 0 1 141.41,0 Z"
           id="path8" />
        <path
           d="m 184.51,324.46 a 168.25,168.25 0 0 1 3.43,-27 c 1,-4.46 2.08,-8.89 3.39,-13.28 1.31,-4.39 2.83,-8.7 4.48,-13 1.65,-4.3 3.36,-8.56 5.25,-12.76 a 77.9,77.9 0 0 1 6.77,-12 100.41,100.41 0 0 1 8.57,-10.81 73,73 0 0 1 10.2,-9.35 l 0.62,0.5 c -1.95,4.21 -4.1,8.18 -6.21,12.13 l -6.36,11.72 c -2.11,3.89 -4.3,7.69 -6.57,11.49 -2.27,3.8 -4.46,7.64 -6.4,11.63 -1.94,3.99 -3.69,8.06 -5.33,12.19 -1.64,4.13 -3.19,8.31 -4.54,12.56 -1.35,4.25 -2.63,8.54 -3.71,12.89 -1.08,4.35 -2,8.75 -2.8,13.18 z"
           id="path10" />
        <path
           class="cls-1"
           d="m 80.35,200.38 c -1.09,-0.22 -5,12.19 -13,37 -7.82,24.36 -6.61,22.75 -10,32 -5.45,14.84 -12.25,32.92 -27,51 a 134.21,134.21 0 0 1 -19,19 c 11.84,1.4 19.66,-1.09 24,-3 C 63,324.23 69.62,283.11 77.41,235 80,218.76 82,200.72 80.35,200.38 Z"
           id="path12" />
        <path
           class="cls-1"
           d="M 52.47,253.16 A 380.51,380.51 0 0 1 31.12,289.85 184.28,184.28 0 0 1 16.41,309.69 169,169 0 0 1 2.05,324.45 60.21,60.21 0 0 0 26.41,310 c 8.58,-8.51 12.29,-17.76 18,-32 a 194,194 0 0 0 8.06,-24.84 z"
           id="path14" />
        <path
           d="m 214.91,243.5 a 219.23,219.23 0 0 0 12.39,-19.29 l 2.86,-5 c 0.92,-1.67 1.8,-3.37 2.7,-5 0.9,-1.63 1.83,-3.34 2.68,-5.05 l 2.54,-5.11 c 1.75,-3.39 3.28,-6.87 4.89,-10.32 l 2.38,-5.18 2.19,-5.28 c 3.07,-7 5.65,-14.12 8.34,-21.24 2.41,-7.22 5.07,-14.35 7.09,-21.7 l 1.67,-5.46 0.83,-2.74 c 0.29,-0.91 0.55,-1.82 0.77,-2.75 q 1.39,-5.53 2.89,-11.06 l 1.46,-5.53 1.23,-5.59 2.55,-11.2 c 0.48,-1.85 0.81,-3.73 1.16,-5.61 l 1.08,-5.64 q 1.09,-5.64 2.3,-11.28 c -0.28,3.82 -0.58,7.65 -0.93,11.48 l -0.54,5.74 c -0.18,1.91 -0.34,3.83 -0.65,5.73 l -1.79,11.43 -0.92,5.7 -1.19,5.65 q -1.19,5.65 -2.45,11.29 c -0.2,0.95 -0.43,1.88 -0.7,2.81 l -0.75,2.79 -1.51,5.58 c -1,3.72 -2,7.43 -3.31,11.08 l -3.63,11 c -2.81,7.18 -5.45,14.44 -8.71,21.44 l -2.38,5.27 -2.58,5.18 -2.59,5.17 c -0.86,1.73 -1.87,3.38 -2.8,5.07 l -2.83,5 c -0.94,1.69 -2,3.31 -3,4.95 -1,1.64 -2,3.27 -3.07,4.89 l -3.25,4.78 a 146.38,146.38 0 0 1 -14.42,18 z"
           id="path16" />
        <path
           d="m 193.41,140 a 37.27,37.27 0 0 1 7,10 c 0.47,0.92 0.89,1.86 1.27,2.81 0.38,0.95 0.76,1.88 1.12,2.84 a 40.39,40.39 0 0 1 1.65,6 28.67,28.67 0 0 1 -6.04,23.35 47,47 0 0 0 3.3,-11.37 35.87,35.87 0 0 0 -0.18,-11.47 40.32,40.32 0 0 0 -1.38,-5.64 c -0.55,-1.89 -1.2,-3.79 -1.84,-5.63 A 90.74,90.74 0 0 0 193.41,140 Z"
           id="path18" />
        <path
           class="cls-1"
           d="m 78.29,292.49 c 1.21,0.21 5,-14.25 12.73,-43.17 7.56,-28.39 6.31,-26.48 9.65,-37.28 5.35,-17.32 12.06,-38.42 27.46,-59.83 a 150,150 0 0 1 20,-22.63 c -13,-1.17 -21.43,2 -26.08,4.36 -29.71,15.06 -35.34,62.72 -41.92,118.51 -2.23,18.83 -3.65,39.71 -1.84,40.04 z"
           id="path20" />
        <path
           class="cls-1"
           d="m 87.85,283.21 c 1.13,0.44 7.52,-13.25 20.38,-40.6 12.63,-26.87 11.06,-25.2 16.31,-35.32 8.42,-16.25 18.85,-36 37.74,-54.48 A 151.52,151.52 0 0 1 185.83,134 c -12.33,-3.55 -21.07,-1.95 -26,-0.46 -31.52,9.52 -45.88,55.91 -62.69,110.2 -5.7,18.26 -10.98,38.82 -9.29,39.47 z"
           id="path22" />
        <path
           class="cls-1"
           d="m 138.86,189.49 c -13.15,30.56 -25.16,54.68 -34.28,72 C 94.25,281.11 87.52,292.17 81.81,300.92 73.52,313.65 66,323.66 60.3,330.78 a 108.82,108.82 0 0 0 34.83,-30.85 c 12.81,-17.28 19.21,-35.16 29.07,-62.7 6.93,-19.34 11.62,-35.92 14.66,-47.74 z"
           id="path24" />
      </g>
      <g
         id="Слой_3"
         data-name="Слой 3">
        <text
           class="cls-2"
           transform="matrix(0.77,0,0,1,279.91,205.49)"
           id="text31">LA<tspan
   class="cls-3"
   x="126.84"
   y="0"
   id="tspan27">D</tspan><tspan
   x="195.66"
   y="0"
   id="tspan29">Y`S</tspan></text>
        <text
           class="cls-4"
           transform="matrix(0.69,0,0,1,279.91,300.34)"
           id="text37">P<tspan
   class="cls-5"
   x="61.529999"
   y="0"
   id="tspan33">O</tspan><tspan
   class="cls-6"
   x="154.19"
   y="0"
   id="tspan35">WER</tspan></text>
        <text
           class="cls-7"
           transform="matrix(0.4,0,0,1,282.87,485.66)"
           id="text39">CAMP</text>
      </g>
    </g>
    <g
       id="черный-6"
       transform="translate(1.4808186,0.38895939)">
      <g
         id="Слой_1-2-9"
         data-name="Слой 1"
         style="fill:#f9f9f9">
        <path
           d="m 133.34,360.81 c 0,6.07 -0.2,12.12 -0.39,18.18 -0.19,6.06 -0.44,12.1 -0.78,18.13 l -0.46,9.07 -0.54,9.05 c -0.39,6 -0.79,12.07 -1.25,18.1 v 0.52 l -0.27,0.61 a 279.9,279.9 0 0 0 -12.82,36.45 c -1.7,6.27 -3.38,12.55 -4.77,18.81 a 182.31,182.31 0 0 0 -3.22,18.92 165,165 0 0 0 0,38.41 c 0.39,3.2 0.83,6.4 1.42,9.58 0.59,3.18 1.18,6.37 1.9,9.54 q 2.17,9.51 5.25,18.88 a 130.27,130.27 0 0 1 -8,-18.07 c -1.1,-3.12 -2.15,-6.26 -3,-9.46 -0.85,-3.2 -1.65,-6.43 -2.35,-9.69 A 140.71,140.71 0 0 1 101.5,508 c 0.25,-3.34 0.65,-6.67 1.11,-10 0.46,-3.33 1.08,-6.6 1.74,-9.87 1.35,-6.55 3,-12.93 4.76,-19.29 a 220.68,220.68 0 0 1 14.09,-37.27 l -0.31,1.13 c 0.7,-6 1.46,-12 2.23,-18 l 1.19,-9 1.27,-9 c 0.82,-6 1.77,-12 2.69,-17.95 0.92,-5.95 1.95,-11.98 3.07,-17.94 z"
           id="path6-3"
           style="fill:#f9f9f9" />
        <path
           d="m 141.41,0 a 206.42,206.42 0 0 0 -12.3,80 c 0.15,3.36 0.22,6.73 0.4,10.09 0.18,3.36 0.5,6.73 0.86,10.08 0.76,6.7 1.8,13.38 3.15,20 a 244.47,244.47 0 0 0 11.32,38.83 220.8,220.8 0 0 0 17.83,36.29 c 3.47,5.83 7.31,11.5 10.49,17.93 a 45.55,45.55 0 0 1 3.65,10.33 42,42 0 0 1 0.8,11 52.43,52.43 0 0 1 -0.61,5.45 29.86,29.86 0 0 1 -1.39,5.51 54.81,54.81 0 0 1 -4.7,9.76 49.64,49.64 0 0 1 -3.07,4.5 c -0.28,0.37 -0.57,0.73 -0.88,1.1 l -0.83,1 -1.67,2 q -3.34,3.93 -6.77,7.78 c -4.54,5.15 -9.2,10.18 -13.65,15.27 -4.45,5.09 -8.58,10.27 -11.28,16.05 a 47,47 0 0 0 -4.28,18.69 135.65,135.65 0 0 0 1.15,20 148,148 0 0 0 3.19,19.87 164.14,164.14 0 0 0 6.18,19.1 c 2.38,6.34 5,12.66 7.54,19 2.54,6.34 5.24,12.58 8,18.78 2.76,6.2 5.7,12.26 8.89,18.27 a 82.65,82.65 0 0 1 4.54,9.56 104.42,104.42 0 0 1 3.23,10 123.09,123.09 0 0 1 4.08,20.58 c 0.76,7 0.8,13.93 1,20.7 0.2,6.77 0.67,13.5 1.44,20.2 0.77,6.7 2,13.36 3.18,20 a 174.48,174.48 0 0 0 10.83,39 A 205.72,205.72 0 0 0 210.41,613 191.18,191.18 0 0 1 188.76,578 175.25,175.25 0 0 1 175,538.9 c -0.35,-1.69 -0.72,-3.37 -1,-5.07 -0.28,-1.7 -0.53,-3.42 -0.8,-5.12 -0.54,-3.41 -1,-6.85 -1.42,-10.28 -0.79,-6.88 -1.26,-13.82 -1.47,-20.7 -0.21,-6.88 -0.28,-13.65 -1,-20.26 a 116,116 0 0 0 -3.89,-19.6 c -0.88,-3.24 -1.88,-6.45 -3,-9.49 a 78.7,78.7 0 0 0 -4.26,-8.94 c -3.23,-6.07 -6.25,-12.33 -9.05,-18.61 -2.8,-6.28 -5.48,-12.61 -8.09,-18.95 -2.61,-6.34 -5.18,-12.69 -7.61,-19.15 a 170.25,170.25 0 0 1 -6.3,-19.88 c -0.84,-3.4 -1.51,-6.85 -2,-10.32 -0.49,-3.47 -0.89,-6.87 -1.29,-10.28 a 141.61,141.61 0 0 1 -1.19,-20.92 60.91,60.91 0 0 1 1.33,-10.69 49.11,49.11 0 0 1 3.52,-10.32 c 3.12,-6.64 7.68,-12.22 12.18,-17.42 4.5,-5.2 9.19,-10.21 13.69,-15.32 q 3.39,-3.82 6.69,-7.69 l 1.65,-1.95 0.81,-1 0.73,-0.91 a 43.88,43.88 0 0 0 2.71,-4 49.26,49.26 0 0 0 4.18,-8.69 32.44,32.44 0 0 0 1.6,-9.2 35.18,35.18 0 0 0 -0.67,-9.41 38.84,38.84 0 0 0 -3.18,-9 C 165,209.89 161.18,204.19 157.64,198.28 A 226.37,226.37 0 0 1 139.35,161.04 239.78,239.78 0 0 1 123.17,79.96 196.37,196.37 0 0 1 141.41,0 Z"
           id="path8-7"
           style="fill:#f9f9f9" />
        <path
           d="m 184.51,324.46 a 168.25,168.25 0 0 1 3.43,-27 c 1,-4.46 2.08,-8.89 3.39,-13.28 1.31,-4.39 2.83,-8.7 4.48,-13 1.65,-4.3 3.36,-8.56 5.25,-12.76 a 77.9,77.9 0 0 1 6.77,-12 100.41,100.41 0 0 1 8.57,-10.81 73,73 0 0 1 10.2,-9.35 l 0.62,0.5 c -1.95,4.21 -4.1,8.18 -6.21,12.13 l -6.36,11.72 c -2.11,3.89 -4.3,7.69 -6.57,11.49 -2.27,3.8 -4.46,7.64 -6.4,11.63 -1.94,3.99 -3.69,8.06 -5.33,12.19 -1.64,4.13 -3.19,8.31 -4.54,12.56 -1.35,4.25 -2.63,8.54 -3.71,12.89 -1.08,4.35 -2,8.75 -2.8,13.18 z"
           id="path10-4"
           style="fill:#f9f9f9" />
        <path
           class="cls-1"
           d="m 80.35,200.38 c -1.09,-0.22 -5,12.19 -13,37 -7.82,24.36 -6.61,22.75 -10,32 -5.45,14.84 -12.25,32.92 -27,51 a 134.21,134.21 0 0 1 -19,19 c 11.84,1.4 19.66,-1.09 24,-3 C 63,324.23 69.62,283.11 77.41,235 80,218.76 82,200.72 80.35,200.38 Z"
           id="path12-5"
           style="fill:#f9f9f9;stroke:#f9f9f9;stroke-miterlimit:10;stroke-opacity:1" />
        <path
           class="cls-1"
           d="M 52.47,253.16 A 380.51,380.51 0 0 1 31.12,289.85 184.28,184.28 0 0 1 16.41,309.69 169,169 0 0 1 2.05,324.45 60.21,60.21 0 0 0 26.41,310 c 8.58,-8.51 12.29,-17.76 18,-32 a 194,194 0 0 0 8.06,-24.84 z"
           id="path14-2"
           style="fill:#f9f9f9;stroke:#f9f9f9;stroke-miterlimit:10;stroke-opacity:1" />
        <path
           d="m 214.91,243.5 a 219.23,219.23 0 0 0 12.39,-19.29 l 2.86,-5 c 0.92,-1.67 1.8,-3.37 2.7,-5 0.9,-1.63 1.83,-3.34 2.68,-5.05 l 2.54,-5.11 c 1.75,-3.39 3.28,-6.87 4.89,-10.32 l 2.38,-5.18 2.19,-5.28 c 3.07,-7 5.65,-14.12 8.34,-21.24 2.41,-7.22 5.07,-14.35 7.09,-21.7 l 1.67,-5.46 0.83,-2.74 c 0.29,-0.91 0.55,-1.82 0.77,-2.75 q 1.39,-5.53 2.89,-11.06 l 1.46,-5.53 1.23,-5.59 2.55,-11.2 c 0.48,-1.85 0.81,-3.73 1.16,-5.61 l 1.08,-5.64 q 1.09,-5.64 2.3,-11.28 c -0.28,3.82 -0.58,7.65 -0.93,11.48 l -0.54,5.74 c -0.18,1.91 -0.34,3.83 -0.65,5.73 l -1.79,11.43 -0.92,5.7 -1.19,5.65 q -1.19,5.65 -2.45,11.29 c -0.2,0.95 -0.43,1.88 -0.7,2.81 l -0.75,2.79 -1.51,5.58 c -1,3.72 -2,7.43 -3.31,11.08 l -3.63,11 c -2.81,7.18 -5.45,14.44 -8.71,21.44 l -2.38,5.27 -2.58,5.18 -2.59,5.17 c -0.86,1.73 -1.87,3.38 -2.8,5.07 l -2.83,5 c -0.94,1.69 -2,3.31 -3,4.95 -1,1.64 -2,3.27 -3.07,4.89 l -3.25,4.78 a 146.38,146.38 0 0 1 -14.42,18 z"
           id="path16-5"
           style="fill:#f9f9f9" />
        <path
           d="m 193.41,140 a 37.27,37.27 0 0 1 7,10 c 0.47,0.92 0.89,1.86 1.27,2.81 0.38,0.95 0.76,1.88 1.12,2.84 a 40.39,40.39 0 0 1 1.65,6 28.67,28.67 0 0 1 -6.04,23.35 47,47 0 0 0 3.3,-11.37 35.87,35.87 0 0 0 -0.18,-11.47 40.32,40.32 0 0 0 -1.38,-5.64 c -0.55,-1.89 -1.2,-3.79 -1.84,-5.63 A 90.74,90.74 0 0 0 193.41,140 Z"
           id="path18-4"
           style="fill:#f9f9f9" />
        <path
           class="cls-1"
           d="m 78.29,292.49 c 1.21,0.21 5,-14.25 12.73,-43.17 7.56,-28.39 6.31,-26.48 9.65,-37.28 5.35,-17.32 12.06,-38.42 27.46,-59.83 a 150,150 0 0 1 20,-22.63 c -13,-1.17 -21.43,2 -26.08,4.36 -29.71,15.06 -35.34,62.72 -41.92,118.51 -2.23,18.83 -3.65,39.71 -1.84,40.04 z"
           id="path20-7"
           style="fill:#f9f9f9;stroke:#f9f9f9;stroke-miterlimit:10;stroke-opacity:1" />
        <path
           class="cls-1"
           d="m 87.85,283.21 c 1.13,0.44 7.52,-13.25 20.38,-40.6 12.63,-26.87 11.06,-25.2 16.31,-35.32 8.42,-16.25 18.85,-36 37.74,-54.48 A 151.52,151.52 0 0 1 185.83,134 c -12.33,-3.55 -21.07,-1.95 -26,-0.46 -31.52,9.52 -45.88,55.91 -62.69,110.2 -5.7,18.26 -10.98,38.82 -9.29,39.47 z"
           id="path22-4"
           style="fill:#f9f9f9;stroke:#f9f9f9;stroke-miterlimit:10;stroke-opacity:1" />
        <path
           class="cls-1"
           d="m 138.86,189.49 c -13.15,30.56 -25.16,54.68 -34.28,72 C 94.25,281.11 87.52,292.17 81.81,300.92 73.52,313.65 66,323.66 60.3,330.78 a 108.82,108.82 0 0 0 34.83,-30.85 c 12.81,-17.28 19.21,-35.16 29.07,-62.7 6.93,-19.34 11.62,-35.92 14.66,-47.74 z"
           id="path24-4"
           style="fill:#f9f9f9;stroke:#f9f9f9;stroke-miterlimit:10;stroke-opacity:1" />
      </g>
      <g
         id="Слой_3-3"
         data-name="Слой 3">
        <text
           class="cls-2"
           transform="matrix(0.77,0,0,1,279.91,205.49)"
           id="text31-0"
           style="font-weight:300;font-size:95.44px;font-family:Comfortaa-Light, Comfortaa;fill:#f9f9f9">LA<tspan
   class="cls-3"
   x="126.84"
   y="0"
   id="tspan27-7"
   style="fill:#f9f9f9">D</tspan><tspan
   x="195.66"
   y="0"
   id="tspan29-8"
   style="fill:#f9f9f9">Y`S</tspan></text>
        <text
           class="cls-4"
           transform="matrix(0.69,0,0,1,279.91,300.34)"
           id="text37-6"
           style="font-weight:300;font-size:101.71px;font-family:Comfortaa-Light, Comfortaa;fill:#f9f9f9">P<tspan
   class="cls-5"
   x="61.529999"
   y="0"
   id="tspan33-8"
   style="fill:#f9f9f9">O</tspan><tspan
   class="cls-6"
   x="154.19"
   y="0"
   id="tspan35-8"
   style="fill:#f9f9f9">WER</tspan></text>
        <text
           class="cls-7"
           transform="matrix(0.4,0,0,1,282.87,485.66)"
           id="text39-4"
           style="font-weight:300;font-size:213.98px;font-family:Comfortaa-Light, Comfortaa;fill:#f9f9f9">CAMP</text>
      </g>
    </g>
  </g>
</svg>
